<?xml version="1.0" standalone="no"?>
<!DOCTYPE svg PUBLIC "-//W3C//DTD SVG 20010904//EN"
 "http://www.w3.org/TR/2001/REC-SVG-20010904/DTD/svg10.dtd">
<svg version="1.0" xmlns="http://www.w3.org/2000/svg"
 width="512.000000pt" height="512.000000pt" viewBox="0 0 512.000000 512.000000"
 preserveAspectRatio="xMidYMid meet">

<g transform="translate(0.000000,512.000000) scale(0.100000,-0.100000)"
fill="#000000" stroke="none">
<path d="M1310 4970 c-24 -24 -22 -18 -64 -263 -22 -126 -43 -215 -57 -244
-28 -57 -56 -86 -327 -332 -175 -160 -219 -205 -251 -260 -124 -215 -591
-1104 -602 -1144 -40 -160 79 -341 244 -372 21 -4 36 -10 35 -14 -107 -204
-119 -237 -119 -310 0 -153 107 -278 261 -306 l35 -6 0 -82 c0 -62 5 -93 22
-128 72 -159 255 -229 405 -156 52 26 111 78 136 123 11 18 12 18 29 -6 82
-116 246 -158 375 -97 31 15 71 44 90 65 18 20 139 233 268 472 l235 435 5
-195 c5 -188 7 -197 33 -252 87 -178 331 -230 470 -100 l27 26 28 -27 c47 -45
109 -67 193 -67 127 0 223 61 281 180 20 40 23 65 28 240 l5 195 154 -285
c362 -670 343 -640 441 -687 129 -61 288 -19 375 99 13 18 18 20 22 9 13 -33
89 -103 141 -128 150 -73 332 -3 406 156 16 35 21 65 21 128 l0 82 35 6 c58
10 134 50 175 90 59 59 85 126 85 217 0 73 -2 81 -57 190 -32 62 -59 116 -61
119 -2 4 14 10 35 14 164 30 279 203 244 366 -8 35 -109 235 -314 618 l-302
566 -90 88 c-49 49 -166 157 -258 240 -165 149 -214 207 -236 277 -5 19 -24
118 -41 220 -33 200 -43 236 -71 250 -11 6 -231 10 -558 10 l-540 0 -28 -24
-27 -24 -8 -588 c-6 -547 -21 -1038 -34 -1109 -8 -50 -38 -155 -44 -155 -5 0
-32 93 -44 150 -12 60 -28 559 -35 1109 l-7 593 -27 24 -28 24 -545 0 c-528 0
-545 -1 -564 -20z m993 -257 c4 -58 7 -219 7 -357 0 -295 16 -819 30 -1028 9
-122 17 -170 50 -280 85 -291 80 -253 80 -683 l0 -387 -39 -39 c-47 -47 -101
-55 -163 -23 -60 31 -63 45 -68 434 -4 255 -9 361 -17 377 -7 12 -28 27 -47
33 -70 23 -63 33 -412 -612 -348 -643 -340 -631 -424 -631 -47 0 -84 22 -110
66 -41 67 -40 69 250 616 151 284 270 520 270 534 0 14 -10 38 -23 52 -28 33
-89 37 -117 9 -10 -11 -120 -212 -245 -449 -307 -581 -438 -801 -497 -831 -96
-50 -206 23 -195 131 3 28 92 206 306 608 358 673 335 628 327 661 -15 59 -90
87 -134 49 -11 -10 -121 -207 -243 -438 -344 -650 -315 -604 -388 -626 -53
-16 -121 14 -144 64 -35 73 -29 90 139 402 336 627 454 852 454 869 0 22 -19
58 -39 73 -19 15 -66 17 -91 3 -10 -5 -107 -176 -215 -380 -221 -413 -224
-417 -311 -407 -79 8 -137 91 -117 166 4 17 139 274 298 573 329 615 267 529
597 830 274 249 294 283 337 563 12 77 24 146 26 153 3 9 99 12 433 12 l429 0
6 -107z m1408 -61 c48 -286 62 -309 330 -553 105 -96 217 -199 249 -229 55
-51 78 -91 353 -605 162 -302 297 -563 301 -578 19 -77 -49 -167 -127 -167
-81 0 -86 6 -296 401 -107 200 -203 372 -215 381 -32 27 -73 22 -107 -11 -16
-16 -29 -40 -29 -52 0 -22 103 -219 454 -874 175 -324 181 -344 131 -417 -35
-52 -88 -67 -150 -44 -24 10 -53 30 -64 44 -10 15 -112 203 -226 417 -114 215
-232 436 -262 493 -30 56 -63 107 -73 112 -50 27 -113 -2 -126 -57 -8 -32 -26
3 332 -670 209 -394 298 -570 301 -598 8 -80 -54 -151 -132 -149 -62 1 -87 22
-158 132 -113 174 -151 241 -391 697 -131 248 -247 458 -258 468 -32 27 -92
23 -117 -9 -12 -15 -21 -38 -21 -52 0 -14 120 -250 266 -526 288 -543 295
-559 255 -623 -41 -66 -104 -85 -171 -51 -44 23 -46 27 -365 617 -279 517
-325 596 -352 609 -27 13 -37 13 -63 2 -17 -7 -36 -22 -43 -34 -8 -15 -13
-125 -17 -376 -5 -345 -6 -356 -27 -391 -27 -43 -59 -59 -120 -59 -39 0 -50 5
-84 39 l-39 39 0 387 c0 430 -4 395 80 682 32 108 41 159 50 275 15 204 30
728 30 1038 0 146 3 309 7 363 l6 97 431 -2 430 -3 27 -163z"/>
<path d="M2078 1383 c-20 -15 -63 -49 -96 -75 -188 -149 -464 -272 -703 -312
-112 -19 -331 -22 -439 -6 -175 26 -344 84 -527 181 -130 68 -169 74 -202 33
-25 -31 -27 -71 -6 -101 17 -25 142 -99 239 -143 177 -79 383 -133 573 -149
407 -34 883 123 1218 401 90 75 105 114 63 162 -35 40 -76 43 -120 9z"/>
<path d="M2943 1391 c-37 -23 -51 -68 -31 -104 17 -32 130 -125 233 -192 315
-206 726 -316 1058 -285 196 19 373 64 549 140 113 49 244 125 263 153 22 32
18 74 -10 102 -37 38 -75 32 -174 -25 -240 -138 -477 -202 -756 -202 -382 0
-697 121 -1015 391 -47 40 -78 46 -117 22z"/>
<path d="M115 625 c-18 -17 -25 -35 -25 -61 0 -31 7 -44 48 -81 316 -294 723
-404 1212 -328 230 36 527 131 588 187 47 45 11 138 -54 138 -14 0 -67 -16
-115 -36 -112 -44 -228 -80 -344 -104 -459 -97 -849 -14 -1145 244 -86 76
-122 85 -165 41z"/>
<path d="M4835 581 c-298 -259 -695 -339 -1163 -235 -111 25 -318 91 -373 120
-92 47 -180 -41 -119 -119 36 -46 293 -136 502 -176 517 -100 918 -12 1259
275 42 36 80 73 83 81 23 59 -17 123 -76 123 -26 0 -49 -14 -113 -69z"/>
</g>
</svg>
